<?xml version="1.0" encoding="utf-8"?>
<!-- Generator: Adobe Illustrator 15.0.2, SVG Export Plug-In . SVG Version: 6.00 Build 0)  -->
<!DOCTYPE svg PUBLIC "-//W3C//DTD SVG 1.1//EN" "http://www.w3.org/Graphics/SVG/1.1/DTD/svg11.dtd">
<svg version="1.1" id="Layer_1" xmlns="http://www.w3.org/2000/svg" xmlns:xlink="http://www.w3.org/1999/xlink" x="0px" y="0px"
	 width="2048px" height="2048px" viewBox="0 0 2048 2048" enable-background="new 0 0 2048 2048" xml:space="preserve">
<path fill="#0000FF" d="M1792,384v448c0,17.333-6.334,32.333-19,45s-27.666,19-45,19h-448c-28,0-47.666-13.333-59-40
	c-11.334-26-6.666-49,14-69l138-138c-98.666-91.333-215-137-349-137c-69.333,0-135.5,13.5-198.5,40.5S708,616,662,662
	s-82.5,100.5-109.5,163.5S512,954.667,512,1024s13.5,135.5,40.5,198.5S616,1340,662,1386s100.5,82.5,163.5,109.5
	S954.667,1536,1024,1536c79.333,0,154.334-17.333,225-52s130.334-83.667,179-147c4.666-6.667,12.334-10.667,23-12
	c9.334,0,17.666,3,25,9l137,138c6,5.333,9.166,12.167,9.5,20.5s-2.166,15.833-7.5,22.5c-72.666,88-160.666,156.167-264,204.5
	s-212.333,72.5-327,72.5c-104,0-203.333-20.333-298-61s-176.333-95.333-245-164s-123.333-150.333-164-245s-61-194-61-298
	s20.333-203.333,61-298s95.333-176.333,164-245s150.333-123.333,245-164c94.667-40.667,194-61,298-61c98,0,192.834,18.5,284.5,55.5
	S1481.666,400.667,1553,468l130-129c19.334-20.667,42.666-25.333,70-14C1779,336.333,1792,356,1792,384z"/>
</svg>
